<?xml version="1.0" standalone="no"?>
<!DOCTYPE svg PUBLIC "-//W3C//DTD SVG 20010904//EN"
 "http://www.w3.org/TR/2001/REC-SVG-20010904/DTD/svg10.dtd">
<svg version="1.0" xmlns="http://www.w3.org/2000/svg"
 width="2132.000000pt" height="2132.000000pt" viewBox="0 0 2132.000000 2132.000000"
 preserveAspectRatio="xMidYMid meet">
<metadata>
Created by potrace 1.11, written by Peter Selinger 2001-2013
</metadata>
<g transform="translate(0.000000,2132.000000) scale(0.100000,-0.100000)"
fill="#000000" stroke="none">
<path d="M18018 17305 c-1057 -309 -2006 -810 -2903 -1530 -1108 -891 -2081
-2095 -2854 -3533 -132 -246 -368 -728 -483 -988 -502 -1131 -879 -2339 -1118
-3584 -28 -146 -53 -276 -57 -290 -3 -16 -19 50 -45 185 -422 2272 -1314 4417
-2526 6080 -541 742 -1186 1426 -1849 1962 -798 645 -1679 1134 -2598 1441
-206 69 -465 145 -472 139 -7 -7 -87 -297 -148 -532 -231 -896 -366 -1740
-416 -2600 -12 -224 -15 -800 -4 -1036 l7 -166 -53 8 c-559 89 -1315 132
-1927 110 -348 -12 -549 -24 -559 -34 -8 -9 64 -460 113 -702 416 -2089 1885
-4086 4224 -5739 1279 -905 2788 -1676 4325 -2209 181 -63 316 -107 650 -212
82 -26 172 -58 198 -72 27 -13 50 -23 52 -21 2 2 -23 42 -54 90 -49 75 -68 94
-134 137 -242 158 -722 497 -1012 715 -1565 1174 -2778 2439 -3619 3776 -574
911 -973 1828 -1221 2805 -67 263 -148 647 -143 676 3 15 12 14 103 -12 169
-50 551 -178 741 -250 1297 -485 2508 -1216 3529 -2128 193 -172 556 -532 738
-731 852 -932 1490 -1956 1943 -3120 54 -140 68 -187 69 -235 1 -41 12 -86 34
-142 18 -46 34 -83 36 -83 2 0 27 71 56 158 356 1073 911 2090 1635 2996 251
314 434 517 758 842 306 306 452 440 721 664 941 784 2060 1434 3210 1865 322
120 919 314 931 302 3 -2 -15 -105 -40 -228 -367 -1841 -1281 -3545 -2756
-5134 -306 -330 -794 -801 -1160 -1120 -581 -508 -1293 -1051 -1976 -1508
l-211 -142 -55 -85 c-31 -47 -55 -86 -54 -88 2 -1 28 9 59 23 31 13 152 54
269 90 2072 640 4086 1693 5678 2969 714 573 1342 1191 1859 1831 844 1044
1403 2154 1656 3290 38 171 144 785 145 836 0 13 -17 17 -102 22 -57 3 -197
11 -313 18 -279 15 -1048 6 -1330 -15 -222 -18 -590 -57 -739 -80 l-89 -13 6
91 c24 353 16 951 -18 1386 -61 764 -194 1547 -399 2345 -70 270 -145 538
-154 547 -4 3 -73 -13 -154 -37z m-338 -552 c332 -1317 432 -2596 304 -3860
l-7 -61 -136 -32 c-463 -109 -1051 -300 -1504 -489 -2085 -868 -3784 -2415
-4914 -4475 -278 -508 -555 -1130 -758 -1704 -37 -106 -69 -191 -70 -190 -1 2
-26 68 -55 148 -642 1775 -1708 3342 -3064 4505 -1150 987 -2495 1685 -3971
2063 l-189 49 -7 34 c-11 50 -37 358 -49 554 -13 223 -13 875 0 1101 31 532
106 1108 211 1624 41 199 138 622 145 629 5 6 73 -21 273 -106 670 -285 1347
-699 1974 -1206 464 -375 964 -864 1387 -1357 1372 -1599 2447 -3721 3029
-5980 103 -399 223 -970 241 -1142 6 -53 17 -119 25 -145 8 -26 15 -58 15 -71
0 -36 17 -17 24 28 5 30 11 40 25 40 15 0 20 10 26 48 3 26 24 142 46 257 478
2558 1645 5095 3200 6955 397 475 863 951 1299 1326 647 557 1382 1030 2095
1349 183 82 357 154 376 154 12 1 20 -14 29 -46z m3023 -4055 c-17 -78 -71
-274 -108 -398 -389 -1290 -1283 -2716 -2521 -4025 -1150 -1215 -2531 -2289
-3979 -3095 -328 -183 -1166 -592 -1181 -578 -1 2 88 55 198 118 1679 961
3144 2295 4107 3740 803 1204 1288 2500 1466 3915 9 71 17 131 18 131 5 5 424
77 567 99 411 61 962 108 1332 113 105 2 106 2 101 -20z m-19728 -98 c502 -27
983 -84 1472 -177 l143 -27 4 -30 c3 -17 15 -105 27 -196 96 -742 313 -1542
609 -2244 731 -1732 2064 -3311 3865 -4576 362 -254 820 -542 1168 -734 37
-21 67 -39 67 -41 0 -2 -48 18 -107 44 -599 268 -1147 559 -1713 909 -1731
1072 -3329 2530 -4420 4032 -608 837 -1053 1672 -1321 2480 -63 191 -140 455
-155 535 l-6 35 88 0 c49 0 175 -5 279 -10z"/>
</g>
</svg>
